<svg width="22" height="21" viewBox="0 0 22 21" fill="none" xmlns="http://www.w3.org/2000/svg">
<g clip-path="url(#clip0)">
<path d="M21.4695 6.52182C21.4215 5.43277 21.2454 4.68406 20.9931 4.03529C20.7329 3.34664 20.3325 2.73009 19.8079 2.21756C19.2954 1.69704 18.6747 1.29258 17.9941 1.03639C17.3416 0.784104 16.5968 0.607992 15.5077 0.559976C14.4105 0.507893 14.0622 0.49585 11.2795 0.49585C8.49669 0.49585 8.14838 0.507893 7.05527 0.555909C5.96622 0.603925 5.21751 0.780194 4.5689 1.03232C3.88009 1.29258 3.26354 1.69297 2.751 2.21756C2.23049 2.73009 1.82618 3.35071 1.56983 4.03138C1.31755 4.68406 1.14144 5.42871 1.09342 6.51775C1.04134 7.61493 1.0293 7.96325 1.0293 10.746C1.0293 13.5288 1.04134 13.8771 1.08936 14.9702C1.13737 16.0592 1.31364 16.8079 1.56592 17.4567C1.82618 18.1454 2.23049 18.7619 2.751 19.2745C3.26354 19.795 3.88416 20.1994 4.56483 20.4556C5.21751 20.7079 5.96215 20.884 7.05136 20.932C8.14431 20.9802 8.49278 20.9921 11.2755 20.9921C14.0583 20.9921 14.4066 20.9802 15.4997 20.932C16.5888 20.884 17.3375 20.7079 17.9861 20.4556C19.3636 19.9231 20.4526 18.834 20.9852 17.4567C21.2373 16.804 21.4136 16.0592 21.4616 14.9702C21.5096 13.8771 21.5216 13.5288 21.5216 10.746C21.5216 7.96325 21.5176 7.61493 21.4695 6.52182ZM19.6238 14.8901C19.5797 15.8911 19.4116 16.4316 19.2714 16.792C18.927 17.6849 18.2184 18.3936 17.3254 18.738C16.9651 18.8781 16.4206 19.0463 15.4236 19.0902C14.3425 19.1384 14.0183 19.1503 11.2835 19.1503C8.54878 19.1503 8.22048 19.1384 7.14332 19.0902C6.14233 19.0463 5.6018 18.8781 5.24144 18.738C4.79709 18.5738 4.39263 18.3135 4.06433 17.9732C3.724 17.6408 3.46374 17.2404 3.29951 16.7961C3.15938 16.4357 2.99124 15.8911 2.94729 14.8942C2.89912 13.8131 2.88723 13.4887 2.88723 10.754C2.88723 8.01924 2.89912 7.69095 2.94729 6.61394C2.99124 5.61295 3.15938 5.07242 3.29951 4.71206C3.46374 4.26756 3.724 3.86325 4.0684 3.5348C4.40061 3.19446 4.801 2.9342 5.2455 2.77013C5.60586 2.63 6.15046 2.46186 7.14739 2.41775C8.22846 2.36974 8.55284 2.35769 11.2874 2.35769C14.0262 2.35769 14.3505 2.36974 15.4276 2.41775C16.4286 2.46186 16.9692 2.63 17.3295 2.77013C17.7739 2.9342 18.1783 3.19446 18.5066 3.5348C18.8469 3.86716 19.1072 4.26756 19.2714 4.71206C19.4116 5.07242 19.5797 5.61686 19.6238 6.61394C19.6718 7.69501 19.6839 8.01924 19.6839 10.754C19.6839 13.4887 19.6718 13.809 19.6238 14.8901Z" fill="#fff"/>
<path d="M11.2789 5.4812C8.3721 5.4812 6.01367 7.83948 6.01367 10.7464C6.01367 13.6534 8.3721 16.0116 11.2789 16.0116C14.1858 16.0116 16.5441 13.6534 16.5441 10.7464C16.5441 7.83948 14.1858 5.4812 11.2789 5.4812ZM11.2789 14.1618C9.39311 14.1618 7.86347 12.6323 7.86347 10.7464C7.86347 8.86049 9.39311 7.331 11.2789 7.331C13.1648 7.331 14.6943 8.86049 14.6943 10.7464C14.6943 12.6323 13.1648 14.1618 11.2789 14.1618Z" fill="#fff"/>
<path d="M17.9815 5.27216C17.9815 5.95095 17.4311 6.50134 16.7521 6.50134C16.0733 6.50134 15.5229 5.95095 15.5229 5.27216C15.5229 4.5932 16.0733 4.04297 16.7521 4.04297C17.4311 4.04297 17.9815 4.5932 17.9815 5.27216Z" fill="#fff"/>
</g>
<defs>
<clipPath id="clip0">
<rect width="20.4963" height="20.4963" fill="white" transform="translate(0.992676 0.495605)"/>
</clipPath>
</defs>
</svg>
