<svg width="21" height="21" viewBox="0 0 21 21" fill="none" xmlns="http://www.w3.org/2000/svg">
<g clip-path="url(#clip0)">
<path d="M20.4916 20.9923V20.9914H20.4968V13.4743C20.4968 9.79691 19.7051 6.96411 15.4059 6.96411C13.3392 6.96411 11.9523 8.09825 11.386 9.17347H11.3263V7.30743H7.25V20.9914H11.4945V14.2156C11.4945 12.4316 11.8327 10.7064 14.042 10.7064C16.219 10.7064 16.2514 12.7424 16.2514 14.3301V20.9923H20.4916Z" fill="#fff"/>
<path d="M0.338379 7.30786H4.588V20.9919H0.338379V7.30786Z" fill="#fff"/>
<path d="M2.4613 0.495605C1.10254 0.495605 0 1.59815 0 2.9569C0 4.31565 1.10254 5.44126 2.4613 5.44126C3.82005 5.44126 4.92259 4.31565 4.92259 2.9569C4.92174 1.59815 3.81919 0.495605 2.4613 0.495605V0.495605Z" fill="#fff"/>
</g>
<defs>
<clipPath id="clip0">
<rect width="20.4966" height="20.4966" fill="white" transform="translate(0 0.495605)"/>
</clipPath>
</defs>
</svg>
