<svg width="21" height="21" viewBox="0 0 21 21" fill="none" xmlns="http://www.w3.org/2000/svg">
<g clip-path="url(#clip0)">
<path d="M18.3773 5.97864L20.0131 4.41381V4.07129H14.3465L10.308 14.1231L5.71346 4.07129H-0.228126V4.41381L1.68264 6.71408C1.86885 6.88406 1.96623 7.13262 1.94146 7.38289V16.4225C2.00039 16.748 1.89448 17.0828 1.66556 17.3194L-0.486938 19.928V20.2663H5.61608V19.9238L3.46358 17.3194C3.23039 17.082 3.12021 16.7531 3.16719 16.4225V8.6035L8.52452 20.2706H9.14721L13.7537 8.6035V17.8977C13.7537 18.1428 13.7537 18.1932 13.5931 18.3538L11.9361 19.9571V20.3005H19.9755V19.9579L18.3782 18.394C18.2381 18.288 18.1655 18.1104 18.1954 17.9378V6.43477C18.1655 6.26137 18.2372 6.08371 18.3773 5.97864Z" fill="#fff"/>
</g>
<defs>
<clipPath id="clip0">
<rect width="20.5" height="20.5" fill="white" transform="translate(0.489136 0.34082)"/>
</clipPath>
</defs>
</svg>
